<svg width="40" height="40" viewBox="0 0 40 40" fill="none" xmlns="http://www.w3.org/2000/svg">
  <mask id="mask0_8_3004" style="mask-type:alpha" maskUnits="userSpaceOnUse" x="0" y="0" width="40" height="40">
    <rect width="40" height="40" fill="#D9D9D9"/>
  </mask>
  <g mask="url(#mask0_8_3004)">
    <path d="M6.66668 18.3333C5.75001 18.3333 4.96529 18.0069 4.31251 17.3542C3.65973 16.7014 3.33334 15.9167 3.33334 15V9.99999C3.33334 9.08332 3.65973 8.2986 4.31251 7.64582C4.96529 6.99305 5.75001 6.66666 6.66668 6.66666H21.6667V18.3333H6.66668ZM6.66668 15H18.3333V9.99999H6.66668V15ZM6.66668 33.3333C5.75001 33.3333 4.96529 33.0069 4.31251 32.3542C3.65973 31.7014 3.33334 30.9167 3.33334 30V25C3.33334 24.0833 3.65973 23.2986 4.31251 22.6458C4.96529 21.993 5.75001 21.6667 6.66668 21.6667H25V33.3333H6.66668ZM6.66668 30H21.6667V25H6.66668V30ZM28.3333 33.3333V18.3333H25V6.66666H36.6667L33.3333 15H36.6667L28.3333 33.3333ZM7.91668 28.75H10.4167V26.25H7.91668V28.75ZM7.91668 13.75H10.4167V11.25H7.91668V13.75Z" fill="white"/>
  </g>
</svg>
