<svg width="16" height="21" viewBox="0 0 16 21" fill="none" xmlns="http://www.w3.org/2000/svg">
  <path d="M8 20.5C7.45 20.5 6.97917 20.3042 6.5875 19.9125C6.19583 19.5208 6 19.05 6 18.5H10C10 19.05 9.80417 19.5208 9.4125 19.9125C9.02083 20.3042 8.55 20.5 8 20.5ZM4 17.5V15.5H12V17.5H4ZM4.25 14.5C3.1 13.8167 2.1875 12.9 1.5125 11.75C0.8375 10.6 0.5 9.35 0.5 8C0.5 5.91667 1.22917 4.14583 2.6875 2.6875C4.14583 1.22917 5.91667 0.5 8 0.5C10.0833 0.5 11.8542 1.22917 13.3125 2.6875C14.7708 4.14583 15.5 5.91667 15.5 8C15.5 9.35 15.1625 10.6 14.4875 11.75C13.8125 12.9 12.9 13.8167 11.75 14.5H4.25ZM4.85 12.5H11.15C11.9 11.9667 12.4792 11.3083 12.8875 10.525C13.2958 9.74167 13.5 8.9 13.5 8C13.5 6.46667 12.9667 5.16667 11.9 4.1C10.8333 3.03333 9.53333 2.5 8 2.5C6.46667 2.5 5.16667 3.03333 4.1 4.1C3.03333 5.16667 2.5 6.46667 2.5 8C2.5 8.9 2.70417 9.74167 3.1125 10.525C3.52083 11.3083 4.1 11.9667 4.85 12.5Z" fill="#1E1E1E"/>
</svg>
