<svg width="20" height="13" viewBox="0 0 20 13" fill="none" xmlns="http://www.w3.org/2000/svg">
  <path d="M6 10.5C7.1 10.5 8.04167 10.1083 8.825 9.325C9.60833 8.54167 10 7.6 10 6.5C10 5.4 9.60833 4.45833 8.825 3.675C8.04167 2.89167 7.1 2.5 6 2.5C4.9 2.5 3.95833 2.89167 3.175 3.675C2.39167 4.45833 2 5.4 2 6.5C2 7.6 2.39167 8.54167 3.175 9.325C3.95833 10.1083 4.9 10.5 6 10.5ZM6 12.5C4.33333 12.5 2.91667 11.9167 1.75 10.75C0.583333 9.58333 0 8.16667 0 6.5C0 4.83333 0.583333 3.41667 1.75 2.25C2.91667 1.08333 4.33333 0.5 6 0.5C7.5 0.5 8.80417 0.975 9.9125 1.925C11.0208 2.875 11.6917 4.06667 11.925 5.5H20V7.5H11.925C11.6917 8.93333 11.0208 10.125 9.9125 11.075C8.80417 12.025 7.5 12.5 6 12.5Z" fill="white"/>
</svg>
