<svg width="20" height="13" viewBox="0 0 20 13" fill="none" xmlns="http://www.w3.org/2000/svg">
  <path d="M14 10.5625C15.125 10.5625 16.0833 10.1667 16.875 9.375C17.6667 8.58333 18.0625 7.625 18.0625 6.5C18.0625 5.375 17.6667 4.41667 16.875 3.625C16.0833 2.83333 15.125 2.4375 14 2.4375C12.875 2.4375 11.9167 2.83333 11.125 3.625C10.3333 4.41667 9.9375 5.375 9.9375 6.5C9.9375 7.625 10.3333 8.58333 11.125 9.375C11.9167 10.1667 12.875 10.5625 14 10.5625ZM14 12.4375C12.5083 12.4375 11.2146 11.9604 10.1188 11.0063C9.02292 10.0521 8.3625 8.8625 8.1375 7.4375H0.0625V5.5625H8.1375C8.3625 4.1375 9.02292 2.94792 10.1188 1.99375C11.2146 1.03958 12.5066 0.5625 13.9947 0.5625C15.6482 0.5625 17.0521 1.13982 18.2063 2.29447C19.3604 3.44914 19.9375 4.85122 19.9375 6.50072C19.9375 8.15024 19.3602 9.55208 18.2057 10.7063C17.0512 11.8604 15.6493 12.4375 14 12.4375Z" fill="white"/>
</svg>
